<svg width="19" height="19" viewBox="0 0 19 19" fill="none" xmlns="http://www.w3.org/2000/svg">
<path d="M9.15039 1.77612C7.64849 1.77612 6.18032 2.22149 4.93153 3.0559C3.68275 3.89031 2.70944 5.07629 2.13468 6.46387C1.55993 7.85145 1.40955 9.3783 1.70256 10.8513C1.99556 12.3244 2.7188 13.6775 3.7808 14.7395C4.84281 15.8015 6.19588 16.5247 7.66893 16.8177C9.14197 17.1107 10.6688 16.9603 12.0564 16.3856C13.444 15.8108 14.63 14.8375 15.4644 13.5887C16.2988 12.3399 16.7441 10.8718 16.7441 9.36987C16.7419 7.35657 15.9411 5.42637 14.5175 4.00275C13.0939 2.57913 11.1637 1.77836 9.15039 1.77612ZM9.99414 3.52479C11.4944 3.74171 12.8538 4.52715 13.791 5.71854L9.99414 7.90878V3.52479ZM3.66602 11.5615C3.33373 10.7319 3.19417 9.83769 3.25788 8.94629C3.32158 8.05489 3.58688 7.1896 4.03376 6.41568C4.48064 5.64177 5.09743 4.97944 5.83761 4.47866C6.57779 3.97788 7.42203 3.65172 8.30664 3.52479V8.88261L3.66602 11.5615ZM9.15039 15.2761C8.25717 15.2759 7.37565 15.0729 6.57236 14.6823C5.76907 14.2916 5.065 13.7237 4.51328 13.0212L14.6348 7.17823C14.9929 8.07434 15.1259 9.04455 15.0223 10.004C14.9187 10.9634 14.5816 11.8828 14.0405 12.6818C13.4993 13.4809 12.7706 14.1351 11.9182 14.5874C11.0657 15.0396 10.1154 15.2761 9.15039 15.2761Z" fill="#9B9CA1"/>
</svg>
